<svg 
    xmlns="http://www.w3.org/2000/svg" 
    xmlns:xlink="http://www.w3.org/1999/xlink" 
    viewBox="0 0 810 641.25"
>
<defs>
<style>.cls-1{fill:url(#INSPIRA_GRADIENT);}</style>
<radialGradient id="INSPIRA_GRADIENT" cx="-111.85" cy="359.37" r="451.91" gradientTransform="translate(508.02 -10.37) scale(0.92)" gradientUnits="userSpaceOnUse"><stop offset="0.25" stop-color="#0090d1"/><stop offset="0.8" stop-color="#1c4e92"/></radialGradient></defs>
<g id="Capa_2" data-name="Capa 2">
<g id="CONTENIDO"><path class="cls-1" d="M808.82,232.36c-2.1,9-6.31,16.79-11,23.91-9.67,14.08-21.62,25.64-34.17,36.08-7,5.76-14,11.16-21.28,16.36-.22-6.16-.73-12.28-1.29-18.4,4.43-3.19,8.68-6.35,12.94-9.74,12.1-9.63,23.4-20.3,32-32.36,8.48-11.9,13.73-26.21,7.78-37.73-2.85-5.74-7.9-10.64-13.75-14.8A100.79,100.79,0,0,0,760,185.91c-14.34-5.3-29.77-8.34-45.26-10.82-7.66-1.22-15.19-2.11-23-2.8a319.23,319.23,0,0,1,36.32,148.33c0,177.08-143.55,320.63-320.62,320.63-169.41,0-308.12-131.38-319.82-297.81-16,11.5-30.87,23.93-43.71,37.75C34.1,392,25.2,404.44,23.84,415.75A21.42,21.42,0,0,0,27,430.53c2.85,4.47,7.77,8.54,13.56,11.91,11.75,6.78,26.48,10.79,41.3,13.54,6.74,1.23,13.39,2.13,20.28,2.89,3.83,8.47,8,16.78,12.58,24.94a333.71,333.71,0,0,1-37.2-4.43C61.2,476.25,44.62,472.1,28.64,463c-7.86-4.65-15.8-10.69-21.61-19.66A44.2,44.2,0,0,1,.55,412.51,66.79,66.79,0,0,1,11.15,386a120.5,120.5,0,0,1,16.46-20.25c24-24.07,51.84-40.89,80.17-56.34a849.28,849.28,0,0,1,87.54-40.24q44.66-17.7,90-33.13L308,228.46c7.52-2.65,14-8.53,20.93-13.44,6.8-5.19,14.57-7.3,22.57-8.52,8.05-1.05,16.41-1,25.51,2.1a4.05,4.05,0,0,1,1.25.69c-1.61-11,.4-18,.1-22.18-.64-9.06-.84-17.75-2.31-37.12-1.89-24.76-12.62-37.32-31.88-37.32a59.4,59.4,0,0,0-19.49,3.73c-4.76,1.75-11.17,5.94-18.18,11.86l6.73,6.73a27.45,27.45,0,0,1,3.23-6.08,32.4,32.4,0,0,1,19.26-13,28.37,28.37,0,0,1,6.9-.81,33.8,33.8,0,0,1,4.28.27,28.5,28.5,0,0,1,10.56,3.38,27,27,0,0,1,4.42,2.79l1.27,1-5.77,5.78-1.24-1a21.57,21.57,0,0,0-3.28-2.22,20.21,20.21,0,0,0-27.27,8.56,20.84,20.84,0,0,0-2.11,11.57l9.28,9.55v33.06l17.33,17.47a59.58,59.58,0,0,0-11.4,2.32l-7.55-7.55a11.24,11.24,0,0,0-5.9,9.86,11.08,11.08,0,0,0,.84,4.2c-6.21,4.14-12.28,8.63-19,10.59l-21,5.77L297,219.87l11.28.18,4.3-4.29a23.71,23.71,0,0,1,6.58-20.57,18.51,18.51,0,0,1,4-3l.18-32.1-24.72-24.71a201.17,201.17,0,0,0-25.46,30.49c-16.45,24.15-34.72,59-42.84,81.19q-19,6-38,12.32a848.59,848.59,0,0,0-89.58,35.49c-5.17,2.47-10.33,5-15.47,7.57C96.78,133.82,236.49,0,407.46,0,524.51,0,626.9,62.73,682.88,156.4A527.37,527.37,0,0,0,620,169.32l.27,0c31.58-3.91,63.37-5.7,95.47-3.1,16.09,1.24,32.21,3.73,48,8.69a102.19,102.19,0,0,1,23.11,10.28c7.24,4.8,14.26,10.89,18.8,19.39S811,223.47,808.82,232.36ZM189.9,216.48l-58.82-25.29-4.22,9.8,58.83,25.29Zm64.83-83.27L209.25,87.3l-7.2,7.13,29.74,30-55.93-4.94-3,2.93,45.47,45.91,7.27-7.2L196,131.21l55.79,4.93Zm75.13-58.56c-3.34-8.49-10.09-12.34-22.53-12.86l-5.23-.3c-7.71-.44-9.56-1.73-10.91-5.16a6,6,0,0,1,0-5,8,8,0,0,1,4.48-3.69,10,10,0,0,1,10.64,1.72l1.7,1.28,6.11-8.2L312.5,41.2a19.69,19.69,0,0,0-12.2-4.38,22.52,22.52,0,0,0-8.21,1.66A18.91,18.91,0,0,0,282,47.27a15.76,15.76,0,0,0-.46,13.06c3.56,9.07,10.62,11.25,20.11,11.73l5.25.31c8.28.38,11.47,1.87,13.16,6.15,1.74,4.43-1,9.06-6.6,11.28a16.5,16.5,0,0,1-6,1.25c-3.25,0-6.3-1.26-9.61-4l-1.61-1.32-6.57,7.71,1.54,1.38A23.11,23.11,0,0,0,306.8,101a28.38,28.38,0,0,0,10.39-2.11c5.46-2.14,9.57-5.51,11.91-9.74A16.58,16.58,0,0,0,329.86,74.65ZM608.19,183.18l4.91,9.67,47.4-4.44-31.39,36,5.11,10.09,45.37-53.42-1.76-3.47Zm41.92,210.11-2.83,7.65,8.59,9.16,2.53-6.84ZM545.82,122.55l8.21,6.67,10-12.28,3.89,3.15a41.37,41.37,0,0,0,4.37,3.1l-1.36,19.74,9.85,8,1.59-24a22.69,22.69,0,0,0,4.23.41c6.63,0,12.62-3.07,17.35-8.89,4.5-5.55,6.44-11.74,5.6-17.9-.86-6.41-4.75-12.58-11.24-17.85L586.2,72.85,580,80.51l11.82,9.6c8.46,6.88,9.71,14.1,3.72,21.47-3.08,3.79-6.52,5.72-10.24,5.72-3.51,0-7.37-1.69-11.48-5L562,102.67Zm-29.6,12.81L491.5,160.07l.18,32.1a18.82,18.82,0,0,1,4.05,3,23.73,23.73,0,0,1,6.57,20.57l4.3,4.29,11.28-.18,11.79,11.5.19,29.22A23.2,23.2,0,0,0,547.15,283l3,.79L519,314.88A70.3,70.3,0,0,0,605.33,380a96.79,96.79,0,0,0-6.51-34.67,35.33,35.33,0,0,1-40-51.77l13.06-2-2.82,3.55a25.79,25.79,0,0,0-5.75,16.14,26.13,26.13,0,0,0,26.1,26.1,25.76,25.76,0,0,0,9.1-1.64l2.91-1.08,1.29,2.83A104,104,0,0,1,573.94,461a30.65,30.65,0,0,0,13.37,3.64c7.29,0,12.79-4.14,16.33-12.3,8.52-19.61,14.5-98.52,5.27-130.59-5-17.31-9.19-29.31-12.91-39.89-1.67-4.77-3.29-9.39-4.9-14.24a6.6,6.6,0,1,1-1.52-4.65c-.84-2.67-1.69-5.43-2.54-8.34-6.1-21-26.88-61.65-45.35-88.77A201.82,201.82,0,0,0,516.22,135.36Zm-32-42.09,10.07,3.51,21-60.45-10.07-3.51ZM434.24,219.65a219.72,219.72,0,0,0-7.47,31.63l22.3-22.54-.09-7.47,33.14-33.4V154.81l9.28-9.55a20.84,20.84,0,0,0-2.1-11.57A20.28,20.28,0,0,0,462,125.12a22.54,22.54,0,0,0-3.29,2.23l-1.23,1-5.78-5.78,1.28-1a27,27,0,0,1,4.41-2.79A28.55,28.55,0,0,1,468,115.4a33.69,33.69,0,0,1,4.28-.27,28.43,28.43,0,0,1,6.9.81,32.37,32.37,0,0,1,19.25,13,26.84,26.84,0,0,1,3.24,6.08l6.72-6.73c-7-5.92-13.42-10.11-18.18-11.86a59.34,59.34,0,0,0-19.48-3.73c-19.27,0-30,12.56-31.88,37.32-1.48,19.37-1.67,28.06-2.32,37.12C436.14,192.42,439.57,202.55,434.24,219.65ZM449,241.23l-23.4,23.39a83.15,83.15,0,0,0,0,9.34l23.46-23.72ZM365.88,226.1l0,2.64,22.29,22.54a219.82,219.82,0,0,0-7.46-31.63c-.57-1.82-1-3.56-1.42-5.22a4.07,4.07,0,0,1-.41.61l-.05,0A51.14,51.14,0,0,1,365.88,226.1Zm-101.1,57.64,3-.79a23.2,23.2,0,0,0,17.29-22.36l.11-15.92q-25,8.66-49.39,18.76a6.5,6.5,0,0,1,1.17,3.73,6.57,6.57,0,0,1-13,1.28l-.46.2c-1.49,4.47-3,8.78-4.56,13.21C215.2,292.43,211,304.43,206,321.74c-9.22,32.07-3.25,111,5.27,130.59,3.55,8.16,9,12.3,16.34,12.3A30.65,30.65,0,0,0,241,461a104,104,0,0,1-28.8-123.55l1.3-2.83,2.91,1.08a25.76,25.76,0,0,0,9.1,1.64,26.13,26.13,0,0,0,26.1-26.1,25.79,25.79,0,0,0-5.75-16.14L243,291.54l13.05,2a35.33,35.33,0,0,1-40,51.77A96.36,96.36,0,0,0,209.59,380a69.67,69.67,0,0,0,15.89,1.87,70.38,70.38,0,0,0,70.44-67ZM108.22,403.12l41.14-10.73-1.87-7.18-19,5,17.27-11.76L144,371.85l-41.13,10.72,1.87,7.18,19.09-5L106.52,396.6Zm20.47,35-3.83-9.41,9.85-4,3.31,8.12,6.57-2.68-3.31-8.11,9.81-4,3.83,9.4,6.57-2.68-6.63-16.27-39.37,16,6.63,16.27Zm21.08,33.66,28.15-16-3.67-6.44-28.38,16.14a3.88,3.88,0,0,1-1.89.56,2.38,2.38,0,0,1-2.12-1.27,2.49,2.49,0,0,1-.26-2,3.37,3.37,0,0,1,1.68-1.89l28.38-16.14L168,438.34l-28.15,16a10.63,10.63,0,0,0-5.23,6.38,10.45,10.45,0,0,0,7.06,12.37,9.37,9.37,0,0,0,2.43.32A11.4,11.4,0,0,0,149.77,471.8Zm53.71,19-4.17-5.34-18.53,6.09,10.41-16.47L187,469.74l-33.48,26.17,4.57,5.84,15.61-12.2-5.28,8.24,3.29,4.2,9.68-3.33-16,12.48L170,517Zm11.72,41.64c8.93-9.43,10.5-11.81,10.53-15.85a10.55,10.55,0,0,0-10-10l-.57,0c-4,.25-6.34,1.95-15.27,11.38s-10.5,11.8-10.52,15.85a9.54,9.54,0,0,0,3.25,7.13,9.83,9.83,0,0,0,6.77,2.91l.55,0C204,543.58,206.27,541.88,215.2,532.45Zm12,27.58,20.92-28.58-6-4.38L217,561.38l14.18,10.38,4.19-5.73Zm54.16-4.76a9.72,9.72,0,0,0-4.95-6.13,10.32,10.32,0,0,0-5.06-1.4,8.71,8.71,0,0,0-2.7.42c-3.87,1.24-5.66,3.45-12,14.79s-7.28,14-6.31,18a9.56,9.56,0,0,0,4.91,6.1,10.38,10.38,0,0,0,5.14,1.43A8.42,8.42,0,0,0,263,588c3.87-1.24,5.67-3.45,12-14.79S282.31,559.2,281.34,555.27Zm32.91,14.38a9.62,9.62,0,0,0-5.59-5.14,10.83,10.83,0,0,0-4-.8,8.79,8.79,0,0,0-3.82.85c-3.67,1.74-5.16,4.16-10,16.22s-5.37,14.85-3.89,18.61a9.53,9.53,0,0,0,5.66,5.41,10.65,10.65,0,0,0,3.93.77c4.19,0,7.61-2.55,9.38-7l5.25-13.21-11.34-4.5-2.56,6.45,4.44,1.76-2.68,6.76c-.65,1.65-1.68,2.59-2.81,2.59a2.72,2.72,0,0,1-1-.21,2.23,2.23,0,0,1-1.4-1.25c-.54-1.6.12-3.86,3.92-13.43s4.87-11.67,6.34-12.45a1.78,1.78,0,0,1,.83-.19,2.76,2.76,0,0,1,1.07.23c.87.34,2.47,1,.92,4.89l-.79,2,6.93,2.75.77-2C315.14,575.3,315.28,572.26,314.25,569.65Zm25.85,5.55-7.16-2-11.19,41,7.15,2ZM330,444.54l6.29-.3a2.33,2.33,0,0,0,.1-.68,3.29,3.29,0,1,0-6.58,0A2.63,2.63,0,0,0,330,444.54ZM340.7,572l9.21-9.13L342,560.7l-8.38,9.35Zm29.75,52.25L368,580.8l-6.28-1L345.6,620.26l7.74,1.24,3.67-10,5.36.85.41,10.68ZM382,344.54c.12-11.38.26-23.45.32-35.61a135.25,135.25,0,0,0,5.59-22.75L355.85,254l.21-22.9a47.76,47.76,0,0,1-20.92,4.12c-8.33-.22-17-1.44-24.62.93-5.56,1.67-11,3.56-16.53,5.45v19a32.22,32.22,0,0,1-13.58,26.11l25.76,25.76,0,1c-1.63,44.34-37,78.46-80.65,78.46a78.06,78.06,0,0,1-13.14-1.16c0,.05,0,.1,0,.16a94.31,94.31,0,0,0,35.74,64.43c.55.41,1.32,1,2.2,1.6q2.7-1,5.63-2.08c5.19-1.87,10.55-3.81,14.51-5.73l.39-.2c5.42-2.59,20.11-3.13,38.7-3.81,3.92-.14,8-.29,12.2-.46a10.23,10.23,0,0,1-.06-1.09,11.38,11.38,0,0,1,22.76-.19l2.33-.17c13.85-1.13,23.94-5.47,30-12.91,6.64-8.15,6.29-17.64,5.84-21.35C381.41,399.3,381.69,373.92,382,344.54Zm7.28-79.92-23.39-23.39-.08,9L389.3,274A80.84,80.84,0,0,0,389.31,264.62ZM423,60c4.65-4.22,7.17-10.35,7.28-17.74S428,28.4,423.38,24,412,17.32,403.85,17.2L388.19,17,388,27l15.32.06c5.78.09,10.06,1.54,12.69,4.3,2.34,2.46,3.49,6.06,3.42,10.7-.15,9.77-5.39,14.52-16,14.52l-15.85-.09L387.21,81l10.58.16L398,66.29l5.08.08h.68C411.74,66.38,418.39,64.16,423,60Zm9.82,565.29-.35-7.09-10.14.51-.53-10.62,8.75-.43-.36-7.09-8.74.44-.53-10.56,10.14-.51-.36-7.09-17.54.88,2.12,42.44Zm53.34-9.15-10.25-41.25-7.2,1.79L479,617.91Zm-7.51-171.88,6.29.3a2.64,2.64,0,0,0,.2-1,3.3,3.3,0,0,0-6.59,0A2.73,2.73,0,0,0,478.67,444.24Zm14.58-.67a10.23,10.23,0,0,1-.06,1.09c4.18.17,8.27.32,12.2.46,18.58.68,33.27,1.22,38.69,3.81l.4.2c4,1.92,9.32,3.86,14.5,5.73q2.92,1.06,5.64,2.08c.87-.61,1.64-1.19,2.19-1.6a94.32,94.32,0,0,0,35.75-64.43c0-.06,0-.11,0-.16a78,78,0,0,1-13.13,1.16c-43.61,0-79-34.12-80.66-78.46l0-1,25.76-25.76a32.2,32.2,0,0,1-13.59-26.11V235.05l-6.58-6.39-11.3.19-14.47-14.13a11.17,11.17,0,0,0-4.82-14.61L458.8,225.06l.26,28.94L427,286.18a136.22,136.22,0,0,0,5.59,22.75c.07,12.16.2,24.23.33,35.61.33,29.38.62,54.76-.57,64.41-.46,3.71-.8,13.2,5.84,21.35,6,7.44,16.14,11.78,30,12.91l2.32.17a11.39,11.39,0,0,1,22.77.19Zm33.66,159.05-15-39.84L505,565.39l6.94,18.45-13.52-16-6.36,2.39,15,39.83,7-2.61L507,589l13.59,16Zm33-27.9-6.78-12.49-10.73,5.82,3.31,6.09,4.21-2.28,3.47,6.4A4.54,4.54,0,0,1,554,581a2.3,2.3,0,0,1-1.27,1.69,2.76,2.76,0,0,1-1.28.37,1.87,1.87,0,0,1-.59-.1c-1.57-.61-2.89-2.57-7.8-11.62s-5.84-11.23-5.5-12.86a2.25,2.25,0,0,1,1.25-1.44,2.77,2.77,0,0,1,1.29-.39c1.33,0,2.49,1.77,3.06,2.83l1,1.87,6.56-3.56-1.07-1.88c-1.79-3.17-4-5.22-6.7-6.1a9,9,0,0,0-2.53-.37,10.49,10.49,0,0,0-5,1.36,9.57,9.57,0,0,0-5,6c-1,3.93-.12,6.63,6.08,18s7.95,13.65,11.79,14.93a8.64,8.64,0,0,0,2.82.46,10.3,10.3,0,0,0,5-1.34,9.9,9.9,0,0,0,4.89-5.78A10.82,10.82,0,0,0,559.89,574.72ZM597.16,562,593,556.23l-8.23,5.94-6.22-8.61,7.1-5.12-4.16-5.75-7.09,5.12-6.19-8.56,8.22-5.94-4.15-5.75-14.24,10.28,24.88,34.42ZM629,534,599.9,503.13l-5.4,5.08L608,522.49,589.41,513l-4.94,4.65,29.12,30.89,5.4-5.09-13.51-14.32,18.64,9.48Zm19.13-21.34-32.42-27.46-4.79,5.66,32.41,27.46Zm22.71-31-5.87-4-5.72,8.4-8.78-6,4.93-7.24-5.87-4-4.93,7.24-8.74-6,5.71-8.39-5.86-4-9.89,14.53L661,496.19Zm20.66-37.92-19.64-2.8c-.42-3.46-3-6.25-7.89-8.74a17.75,17.75,0,0,0-7.77-2.25c-4.77,0-7,3.33-8.26,5.83l-4.33,8.61,38,19.1,3.33-6.63-15.3-7.7.57-1.13L688,450.79Zm9.89-24.86-39.85-14.74-2.57,7,39.84,14.73Zm11.64-40.57L669.52,377,668,383.15l38.94,19.58,1.91-7.6-9.67-4.54,1.32-5.27,10.68.52Zm-52.4,60.52a10.84,10.84,0,0,0-4.32-1.42c-.79,0-1.36.24-2,1.46L653.3,441l10,5,1.05-2.08c.61-1.23.42-1.84.11-2.31A9.77,9.77,0,0,0,660.65,438.83ZM216,513.84h-.17c-1.66.17-3.43,1.72-10.52,9.21s-8.53,9.34-8.62,11a2.26,2.26,0,0,0,.84,1.69,2.48,2.48,0,0,0,1.65.78h.14c1.66-.18,3.43-1.73,10.52-9.21s8.54-9.34,8.63-11a2.37,2.37,0,0,0-.88-1.73A2.35,2.35,0,0,0,216,513.84Zm57,41.49a2.79,2.79,0,0,0-1.3-.39,1.71,1.71,0,0,0-.59.11c-1.56.58-2.9,2.52-7.93,11.52s-6,11.16-5.65,12.81a2.23,2.23,0,0,0,1.23,1.44,2.8,2.8,0,0,0,1.37.4,1.79,1.79,0,0,0,.57-.09c1.56-.58,2.89-2.52,7.92-11.52s6-11.16,5.65-12.82A2.4,2.4,0,0,0,272.93,555.33ZM532.55,170.74l2.52-5.58-3.57-5-6.08.6-2.53,5.58,3.57,5Zm-20.8,14.93,2.51-5.58-3.56-5-6.09.6-2.52,5.58,3.57,5Zm7.57-11.4-2.52,5.57,3.56,5,6.1-.6,2.52-5.58-3.57-5Zm3.57,17.83-3.57-5-6.09.6-2.52,5.58,3.56,5,6.09-.6Zm-1,7.64-2.51,5.58,3.57,5,6.09-.61,2.52-5.57-3.57-5Zm65.37,125a11.85,11.85,0,0,0,5.57-1.42l2.13-1.13-5-5,1.81-1.81,5.05,5.05,1.12-2.15a12,12,0,0,0-16.2-16.2l-2.15,1.13,4.5,4.49-1.81,1.81L577.7,305l-1.13,2.13a12,12,0,0,0,10.64,17.63ZM529,196.82l6.09-.6,2.52-5.58-3.57-5-6.09.61-2.52,5.57Zm2.52-18.44,3.57,5,6.09-.6,2.52-5.58-3.57-5-6.09.6Zm-13.67-6.18,2.52-5.58-3.57-5-6.09.6-2.52,5.58,3.57,5Zm22.29,18.19,3.57,5,6.09-.61,2.52-5.57-3.56-5-6.1.61Zm-3.57,7.9L534,203.86l3.57,5,6.08-.59,2.53-5.59-3.57-5Zm-274-9.1,2.52,5.57,6.09.61,3.57-5-2.51-5.57-6.1-.61ZM237.21,305l-4.48,4.49-1.82-1.81,4.5-4.49-2.14-1.13a12,12,0,0,0-17.61,10.64,11.86,11.86,0,0,0,1.41,5.56l1.11,2.15,5-5.05,1.82,1.81-5,5,2.13,1.13a11.82,11.82,0,0,0,5.56,1.42,12.07,12.07,0,0,0,12.06-12.06,11.85,11.85,0,0,0-1.42-5.57ZM312.83,181.3l-2.53-5.58-6.08-.6-3.57,5,2.52,5.58,6.09.6Zm-29.42-21.11-3.56,5,2.51,5.58,6.09.6,3.57-5-2.52-5.58Zm2.53,18.44,2.51,5.58,6.1.6,3.57-5-2.53-5.57-6.09-.61Zm-14.72-1.46,2.53,5.58,6.09.6,3.56-5-2.52-5.58-6.09-.6ZM359.6,604.7l2.46.4-.25-6.38ZM298.12,161.65l-3.57,5,2.53,5.58,6.09.6,3.57-5-2.53-5.58Zm-25.85,36-3.57,5,2.52,5.59,6.08.59,3.57-5-2.51-5.57ZM292,210.3l3.57-5-2.52-5.58-6.1-.59-3.56,5,2.52,5.57Zm12.19-17-2.52-5.58-6.09-.6-3.57,5,2.52,5.58,6.09.6ZM693.24,385l-6.4-.31,5.78,2.74ZM289.5,191.85,287,186.28l-6.09-.61-3.57,5,2.53,5.58,6.09.6Z"/>
</g>
</g>
</svg>